<svg width="26" height="24" viewBox="0 0 26 24" fill="none" xmlns="http://www.w3.org/2000/svg">
<g id="Clip path group">
<mask id="mask0_57_21" style="mask-type:luminance" maskUnits="userSpaceOnUse" x="0" y="0" width="26" height="24">
<g id="clip0_8681_1057">
<path id="Vector" d="M25.506 0H0V23.747H25.506V0Z" fill="white"/>
</g>
</mask>
<g mask="url(#mask0_57_21)">
<g id="Group">
<path id="Vector_2" d="M2.54702 22.7558C3.76732 21.3798 4.91842 19.963 5.36162 18.0832C4.81172 17.7032 4.23172 17.3346 3.68442 16.9202C0.227123 14.2995 -0.934077 10.1663 0.787023 6.42717C1.80012 4.22607 3.49482 2.63327 5.63652 1.63597C10.9216 -0.825333 16.0673 -0.583034 20.893 2.85897C24.0414 5.10467 25.3671 9.03127 24.2172 12.3891C23.2857 15.1105 21.375 16.9393 18.8957 18.2056C16.282 19.5408 13.5001 19.9132 10.609 19.6684C10.2726 19.6403 9.87082 19.7462 9.58212 19.926C7.65142 21.1337 5.59382 22.048 3.44462 22.7622C3.19612 22.8451 2.92992 22.8731 2.67262 22.9267C2.63112 22.8693 2.58852 22.8119 2.54702 22.7545V22.7558Z" fill="#181600"/>
</g>
</g>
</g>
</svg>
