<svg width="512" height="512" viewBox="0 0 512 512" fill="none" xmlns="http://www.w3.org/2000/svg">
<rect width="512" height="512" fill="#F4364C"/>
<g clip-path="url(#clip0_685_689)">
<path d="M256.147 85.4778C282.045 85.4882 307.144 94.4518 327.19 110.85C347.237 127.248 360.997 150.072 366.141 175.455C371.285 200.838 367.495 227.218 355.415 250.127C343.334 273.035 323.705 291.063 299.853 301.155C272.422 312.747 241.509 312.967 213.915 301.766C186.322 290.566 164.308 268.863 152.716 241.431C141.124 214 140.904 183.087 152.105 155.493C163.305 127.899 185.008 105.885 212.44 94.2936C226.267 88.4424 241.133 85.4438 256.147 85.4778ZM256.147 70.5778C185.928 70.5778 129 127.506 129 197.724C129 267.943 185.928 324.871 256.147 324.871C326.365 324.871 383.293 267.943 383.293 197.724C383.293 127.506 326.365 70.5778 256.147 70.5778Z" fill="white"/>
<path d="M305.448 159.078V217.461C305.448 223.56 301.614 228.338 296.722 228.338H284.777C279.88 228.338 276.051 223.56 276.051 217.461V159.078C276.051 152.979 279.88 148.201 284.777 148.201H296.697C301.614 148.201 305.448 152.979 305.448 159.078Z" fill="white"/>
<path d="M267.18 180.524V217.461C267.18 223.56 263.346 228.338 258.454 228.338H246.534C241.647 228.338 237.812 223.56 237.812 217.461V180.524C237.812 174.425 241.647 169.647 246.534 169.647H258.454C263.346 169.647 267.18 174.425 267.18 180.524Z" fill="white"/>
<path d="M229.757 198.399V217.461C229.757 223.56 225.922 228.338 221.03 228.338H209.11C204.223 228.338 200.389 223.56 200.389 217.461V198.399C200.389 192.3 204.223 187.522 209.11 187.522H221.03C225.922 187.522 229.757 192.3 229.757 198.399Z" fill="white"/>
</g>
<path d="M170.541 373.982L165.482 382.92C155.785 382.415 145.245 378.957 137.909 373.139L135.211 370.778C133.946 372.043 132.513 373.139 130.911 374.235C123.575 379.21 114.131 381.824 105.278 382.92L99.4594 374.151C112.866 372.465 123.659 369.176 129.056 361.587C129.646 360.744 130.152 359.817 130.574 358.805H105.446V349.192H165.482V358.805H142.8C142.378 360.323 141.873 361.756 141.198 363.105C141.957 364.033 142.884 364.792 143.812 365.55C150.558 370.778 159.917 372.971 170.541 373.982ZM141.198 411.083C141.198 417.417 136.064 422.551 129.73 422.551V397.761H98.3633V388.148H135.464H172.565V397.761H141.198V411.083Z" fill="white"/>
<path d="M243.254 367.743V377.355H197.299V385.956H245.783V395.653H221.246V407.373H252.192V416.986H177.99V407.373H209.779V395.653H186V349.867H234.485C239.793 349.867 244.097 354.171 244.097 359.479H197.215V367.743H243.254Z" fill="white"/>
<path d="M259.303 410.944V400.994L268.241 400.657L267.634 361.11H278.852L279.456 400.235L291.176 399.729L291.796 361.11H303.014L302.391 399.307L312.34 398.886V408.33L259.303 410.944ZM327.012 424.013H315.713V348.462C321.953 348.462 327.012 353.521 327.012 359.761V424.013ZM308.63 351.498V361.11H260.989V351.498H308.63Z" fill="white"/>
<path d="M403.266 422.551H391.967V347C398.207 347 403.266 352.059 403.266 358.299V372.212H413.975V381.993H403.266V422.551ZM386.065 376.175C386.065 391.352 375.525 401.977 361.612 401.977C347.699 401.977 337.159 391.352 337.159 376.175C337.159 360.997 347.699 350.373 361.612 350.373C375.525 350.373 386.065 360.997 386.065 376.175ZM374.766 376.175C374.766 366.394 369.369 359.985 361.612 359.985C353.854 359.985 348.458 366.394 348.458 376.175C348.458 385.956 353.854 392.364 361.612 392.364C369.369 392.364 374.766 385.956 374.766 376.175Z" fill="white"/>
<defs>
<clipPath id="clip0_685_689">
<rect width="254.293" height="254.293" fill="white" transform="translate(129 70.5778)"/>
</clipPath>
</defs>
</svg>
