<svg width="20" height="19" viewBox="0 0 20 19" fill="none" xmlns="http://www.w3.org/2000/svg">
<g id="Group 1171275999">
<g id="Group 1171275997">
<path id="Vector" d="M1 0H11C11.2652 0 11.5196 0.10536 11.7071 0.29289C11.8946 0.48043 12 0.73478 12 1V19H0V1C0 0.73478 0.10537 0.48043 0.29291 0.29289C0.48044 0.10536 0.73478 0 1 0Z" fill="#D9D9D9"/>
<path id="Vector_2" d="M4.75 2.75H3.25C2.97386 2.75 2.75 2.97386 2.75 3.25V4.75C2.75 5.02614 2.97386 5.25 3.25 5.25H4.75C5.02614 5.25 5.25 5.02614 5.25 4.75V3.25C5.25 2.97386 5.02614 2.75 4.75 2.75Z" fill="white"/>
<path id="Vector_3" d="M8.75 2.75H7.25C6.97386 2.75 6.75 2.97386 6.75 3.25V4.75C6.75 5.02614 6.97386 5.25 7.25 5.25H8.75C9.0261 5.25 9.25 5.02614 9.25 4.75V3.25C9.25 2.97386 9.0261 2.75 8.75 2.75Z" fill="white"/>
<path id="Vector_4" d="M4.75 6.75H3.25C2.97386 6.75 2.75 6.97386 2.75 7.25V8.75C2.75 9.0261 2.97386 9.25 3.25 9.25H4.75C5.02614 9.25 5.25 9.0261 5.25 8.75V7.25C5.25 6.97386 5.02614 6.75 4.75 6.75Z" fill="white"/>
<path id="Vector_5" d="M8.75 6.75H7.25C6.97386 6.75 6.75 6.97386 6.75 7.25V8.75C6.75 9.0261 6.97386 9.25 7.25 9.25H8.75C9.0261 9.25 9.25 9.0261 9.25 8.75V7.25C9.25 6.97386 9.0261 6.75 8.75 6.75Z" fill="white"/>
<path id="Vector_6" d="M4.75 10.75H3.25C2.97386 10.75 2.75 10.9739 2.75 11.25V12.75C2.75 13.0261 2.97386 13.25 3.25 13.25H4.75C5.02614 13.25 5.25 13.0261 5.25 12.75V11.25C5.25 10.9739 5.02614 10.75 4.75 10.75Z" fill="white"/>
<path id="Vector_7" d="M8.75 10.75H7.25C6.97386 10.75 6.75 10.9739 6.75 11.25V12.75C6.75 13.0261 6.97386 13.25 7.25 13.25H8.75C9.0261 13.25 9.25 13.0261 9.25 12.75V11.25C9.25 10.9739 9.0261 10.75 8.75 10.75Z" fill="white"/>
</g>
<g id="Group 1171275998">
<path id="Vector_8" d="M12.6667 6H19.3333C19.5101 6 19.6797 6.07209 19.8047 6.2004C19.9297 6.32872 20 6.50274 20 6.68421V19H12V6.68421C12 6.50274 12.0702 6.32872 12.1953 6.2004C12.3203 6.07209 12.4899 6 12.6667 6Z" fill="#E6E6E6"/>
<path id="Vector_9" d="M15.1668 7.88159H14.1668C13.9827 7.88159 13.8335 8.03476 13.8335 8.2237V9.25001C13.8335 9.43895 13.9827 9.59212 14.1668 9.59212H15.1668C15.3509 9.59212 15.5002 9.43895 15.5002 9.25001V8.2237C15.5002 8.03476 15.3509 7.88159 15.1668 7.88159Z" fill="white"/>
<path id="Vector_10" d="M17.8333 7.88159H16.8333C16.6492 7.88159 16.5 8.03476 16.5 8.2237V9.25001C16.5 9.43895 16.6492 9.59212 16.8333 9.59212H17.8333C18.0174 9.59212 18.1667 9.43895 18.1667 9.25001V8.2237C18.1667 8.03476 18.0174 7.88159 17.8333 7.88159Z" fill="white"/>
<path id="Vector_11" d="M15.1668 10.6184H14.1668C13.9827 10.6184 13.8335 10.7716 13.8335 10.9605V11.9868C13.8335 12.1757 13.9827 12.3289 14.1668 12.3289H15.1668C15.3509 12.3289 15.5002 12.1757 15.5002 11.9868V10.9605C15.5002 10.7716 15.3509 10.6184 15.1668 10.6184Z" fill="white"/>
<path id="Vector_12" d="M17.8333 10.6184H16.8333C16.6492 10.6184 16.5 10.7716 16.5 10.9605V11.9868C16.5 12.1757 16.6492 12.3289 16.8333 12.3289H17.8333C18.0174 12.3289 18.1667 12.1757 18.1667 11.9868V10.9605C18.1667 10.7716 18.0174 10.6184 17.8333 10.6184Z" fill="white"/>
<path id="Vector_13" d="M15.1668 13.3555H14.1668C13.9827 13.3555 13.8335 13.5087 13.8335 13.6976V14.7239C13.8335 14.9128 13.9827 15.066 14.1668 15.066H15.1668C15.3509 15.066 15.5002 14.9128 15.5002 14.7239V13.6976C15.5002 13.5087 15.3509 13.3555 15.1668 13.3555Z" fill="white"/>
<path id="Vector_14" d="M17.8333 13.3555H16.8333C16.6492 13.3555 16.5 13.5087 16.5 13.6976V14.7239C16.5 14.9128 16.6492 15.066 16.8333 15.066H17.8333C18.0174 15.066 18.1667 14.9128 18.1667 14.7239V13.6976C18.1667 13.5087 18.0174 13.3555 17.8333 13.3555Z" fill="white"/>
</g>
</g>
</svg>
