<svg width="26" height="24" viewBox="0 0 26 24" fill="none" xmlns="http://www.w3.org/2000/svg">
<g id="Clip path group">
<mask id="mask0_182_1770" style="mask-type:luminance" maskUnits="userSpaceOnUse" x="0" y="0" width="26" height="24">
<g id="clip0_8681_1057">
<path id="Vector" d="M25.506 0H0V23.747H25.506V0Z" fill="white"/>
</g>
</mask>
<g mask="url(#mask0_182_1770)">
<g id="Group">
<path id="Vector_2" d="M2.54714 22.7558C3.76744 21.3798 4.91854 19.963 5.36174 18.0832C4.81184 17.7032 4.23184 17.3346 3.68454 16.9202C0.227245 14.2995 -0.933955 10.1663 0.787145 6.42717C1.80025 4.22607 3.49494 2.63327 5.63664 1.63597C10.9217 -0.825333 16.0674 -0.583034 20.8931 2.85897C24.0415 5.10467 25.3672 9.03127 24.2173 12.3891C23.2858 15.1105 21.3751 16.9393 18.8958 18.2056C16.2821 19.5408 13.5002 19.9132 10.6091 19.6684C10.2727 19.6403 9.87094 19.7462 9.58224 19.926C7.65154 21.1337 5.59394 22.048 3.44474 22.7622C3.19624 22.8451 2.93004 22.8731 2.67274 22.9267C2.63124 22.8693 2.58864 22.8119 2.54714 22.7545V22.7558Z" fill="#181600"/>
</g>
</g>
</g>
</svg>
