<svg width="20" height="20" viewBox="0 0 20 20" fill="none" xmlns="http://www.w3.org/2000/svg">
<g id="more">
<path id="Vector" fill-rule="evenodd" clip-rule="evenodd" d="M9.52941 10C9.52941 9.73478 9.63167 9.48043 9.81369 9.29289C9.99571 9.10536 10.2426 9 10.5 9C10.7574 9 11.0043 9.10536 11.1863 9.29289C11.3683 9.48043 11.4706 9.73478 11.4706 10C11.4706 10.2652 11.3683 10.5196 11.1863 10.7071C11.0043 10.8946 10.7574 11 10.5 11C10.2426 11 9.99571 10.8946 9.81369 10.7071C9.63167 10.5196 9.52941 10.2652 9.52941 10ZM15.0294 9C15.2868 9 15.5337 9.10536 15.7157 9.29289C15.8977 9.48043 16 9.73478 16 10C16 10.2652 15.8977 10.5196 15.7157 10.7071C15.5337 10.8946 15.2868 11 15.0294 11C14.772 11 14.5251 10.8946 14.3431 10.7071C14.1611 10.5196 14.0588 10.2652 14.0588 10C14.0588 9.73478 14.1611 9.48043 14.3431 9.29289C14.5251 9.10536 14.772 9 15.0294 9ZM5 10C5 9.73478 5.10226 9.48043 5.28428 9.29289C5.4663 9.10536 5.71317 9 5.97059 9C6.228 9 6.47488 9.10536 6.6569 9.29289C6.83892 9.48043 6.94118 9.73478 6.94118 10C6.94118 10.2652 6.83892 10.5196 6.6569 10.7071C6.47488 10.8946 6.228 11 5.97059 11C5.71317 11 5.4663 10.8946 5.28428 10.7071C5.10226 10.5196 5 10.2652 5 10Z" fill="#A3A9A9"/>
</g>
</svg>
