<svg width="26" height="24" viewBox="0 0 26 24" fill="none" xmlns="http://www.w3.org/2000/svg">
<g id="Clip path group">
<mask id="mask0_182_1778" style="mask-type:luminance" maskUnits="userSpaceOnUse" x="0" y="0" width="26" height="24">
<g id="clip0_8681_1057">
<path id="Vector" d="M25.506 0H0V23.747H25.506V0Z" fill="white"/>
</g>
</mask>
<g mask="url(#mask0_182_1778)">
<g id="Clip path group_2">
<mask id="mask1_182_1778" style="mask-type:luminance" maskUnits="userSpaceOnUse" x="2" y="2" width="21" height="20">
<g id="clip0_710_6222">
<path id="Vector_2" d="M22.5 2H2.5V22H22.5V2Z" fill="white"/>
</g>
</mask>
<g mask="url(#mask1_182_1778)">
<g id="Group">
<path id="Vector_3" d="M22.1 12.2273C22.1 11.5182 22.0364 10.8364 21.9182 10.1818H12.5V14.05H17.8818C17.65 15.3 16.9455 16.3591 15.8864 17.0682V19.5773H19.1182C21.0091 17.8364 22.1 15.2727 22.1 12.2273Z" fill="#4285F4"/>
<path id="Vector_4" d="M12.4999 22C15.1999 22 17.4635 21.1045 19.118 19.5773L15.8862 17.0682C14.9908 17.6682 13.8453 18.0227 12.4999 18.0227C9.89528 18.0227 7.69078 16.2636 6.90438 13.9H3.56348V16.4909C5.20898 19.7591 8.59078 22 12.4999 22Z" fill="#34A853"/>
<path id="Vector_5" d="M6.9045 13.9001C6.7045 13.3001 6.5909 12.6592 6.5909 12.0001C6.5909 11.341 6.7045 10.7001 6.9045 10.1001V7.50916H3.5636C2.8864 8.85916 2.5 10.3865 2.5 12.0001C2.5 13.6137 2.8864 15.141 3.5636 16.491L6.9045 13.9001Z" fill="#FBBC04"/>
<path id="Vector_6" d="M12.4999 5.9773C13.968 5.9773 15.2862 6.4818 16.3226 7.4727L19.1908 4.6045C17.459 2.9909 15.1953 2 12.4999 2C8.59078 2 5.20898 4.2409 3.56348 7.5091L6.90438 10.1C7.69078 7.7364 9.89528 5.9773 12.4999 5.9773Z" fill="#E94235"/>
</g>
</g>
</g>
</g>
</g>
</svg>
