<svg width="24" height="24" viewBox="0 0 24 24" fill="none" xmlns="http://www.w3.org/2000/svg">
<g id="icon_my money">
<path id="Vector" d="M12 22C17.5228 22 22 17.5228 22 12C22 6.47715 17.5228 2 12 2C6.47715 2 2 6.47715 2 12C2 17.5228 6.47715 22 12 22Z" fill="#DEDEDE"/>
<path id="Vector_2" d="M15.4802 17H12.9802L10.7402 8H13.2402L15.4802 17Z" fill="white"/>
<path id="Vector_3" d="M15.4998 8L13.2598 17H15.7598L17.9998 8" fill="white"/>
<path id="Vector_4" d="M8.5 17H11L13.23 8H10.73L8.5 17Z" fill="white"/>
<path id="Vector_5" d="M8.46973 8L10.7097 17H8.20972L5.96973 8" fill="white"/>
<path id="Vector_6" d="M19 10.5H16V12.5H19V10.5Z" fill="white"/>
<path id="Vector_7" d="M8 10.5H5V12.5H8V10.5Z" fill="white"/>
</g>
</svg>
