<svg width="75" height="20" viewBox="0 0 75 20" fill="none" xmlns="http://www.w3.org/2000/svg">
<g id="&#236;&#163;&#188;&#237;&#134;&#160;&#237;&#148;&#188;&#236;&#149;&#132;">
<path d="M17.152 7.31613L15.9497 9.44009C13.6454 9.31987 11.1408 8.49833 9.39752 7.11576L8.75633 6.55471C8.45577 6.85527 8.11513 7.11576 7.73442 7.37624C5.99117 8.55845 3.74699 9.17961 1.64306 9.44009L0.260486 7.35621C3.44643 6.95546 6.01121 6.174 7.2936 4.37064C7.43386 4.17027 7.55409 3.94985 7.65427 3.70941H1.68314V1.42515H15.9497V3.70941H10.5597C10.4595 4.07008 10.3393 4.41071 10.179 4.73131C10.3593 4.95172 10.5797 5.13206 10.8001 5.31239C12.4031 6.55471 14.6273 7.07568 17.152 7.31613ZM10.179 16.1326C10.179 17.6376 8.95892 18.8576 7.4539 18.8576V12.9667H0V10.6824H8.81644H17.6329V12.9667H10.179V16.1326Z" fill="#F4364C"/>
<path d="M34.4309 5.83337V8.11762H23.5106V10.1614H35.032V12.4657H29.2012V15.2509H36.5549V17.5352H18.922V15.2509H26.4761V12.4657H20.8255V1.58545H32.347C33.6086 1.58545 34.6313 2.60814 34.6313 3.8697H23.4905V5.83337H34.4309Z" fill="#F4364C"/>
<path d="M38.2447 16.0994V13.735L40.3687 13.6548L40.2245 4.25729H42.8903L43.0337 13.5546L45.8189 13.4344L45.9662 4.25729H48.632L48.4838 13.3342L50.8482 13.234V15.4782L38.2447 16.0994ZM54.3347 19.2052H51.6497V1.25168C53.1326 1.25168 54.3347 2.4538 54.3347 3.93669V19.2052ZM49.9666 1.97303V4.25729H38.6455V1.97303H49.9666Z" fill="#F4364C"/>
<path d="M72.4553 18.8576H69.7702V0.904175C71.2531 0.904175 72.4553 2.10629 72.4553 3.58918V6.89535H75V9.21968H72.4553V18.8576ZM68.3676 7.8371C68.3676 11.4438 65.863 13.9685 62.5568 13.9685C59.2506 13.9685 56.746 11.4438 56.746 7.8371C56.746 4.23038 59.2506 1.70567 62.5568 1.70567C65.863 1.70567 68.3676 4.23038 68.3676 7.8371ZM65.6826 7.8371C65.6826 5.51277 64.4002 3.98993 62.5568 3.98993C60.7134 3.98993 59.431 5.51277 59.431 7.8371C59.431 10.1614 60.7134 11.6843 62.5568 11.6843C64.4002 11.6843 65.6826 10.1614 65.6826 7.8371Z" fill="#F4364C"/>
</g>
</svg>
