<svg width="142" height="35" viewBox="0 0 142 35" fill="none" xmlns="http://www.w3.org/2000/svg">
<g id="LOgo">
<g id="&#236;&#163;&#188;&#237;&#134;&#160;&#237;&#148;&#188;&#236;&#149;&#132;">
<path d="M32.4744 12.3729L30.1982 16.3943C25.8354 16.1667 21.0932 14.6112 17.7926 11.9936L16.5786 10.9313C16.0096 11.5004 15.3646 11.9936 14.6438 12.4868C11.3433 14.7251 7.0943 15.9011 3.11087 16.3943L0.493186 12.4488C6.52523 11.6901 11.3812 10.2105 13.8092 6.79614C14.0748 6.41677 14.3024 5.99946 14.4921 5.54421H3.18674V1.21934H30.1982V5.54421H19.993C19.8033 6.22708 19.5757 6.87202 19.2722 7.47902C19.6136 7.89633 20.031 8.23776 20.4483 8.5792C23.4833 10.9313 27.6943 11.9177 32.4744 12.3729ZM19.2722 29.0654C19.2722 31.9149 16.9622 34.2249 14.1127 34.2249V23.0713H0V18.7464H16.6925H33.3849V23.0713H19.2722V29.0654Z" fill="#121212"/>
<path d="M65.1892 9.56557V13.8904H44.5133V17.7601H66.3273V22.1229H55.2875V27.3962H69.2106V31.721H35.8257V27.3962H50.1281V22.1229H39.4297V1.52284H61.2437C63.6323 1.52284 65.5686 3.45915 65.5686 5.84771H44.4754V9.56557H65.1892Z" fill="#121212"/>
<path d="M72.4101 29.0025V24.5259L76.4314 24.3742L76.1583 6.58153H81.2056L81.4771 24.1845L86.7504 23.9569L87.0293 6.58153H92.0765L91.7961 23.7672L96.2727 23.5775V27.8265L72.4101 29.0025ZM102.874 34.8828H97.7902V0.890921C100.598 0.890921 102.874 3.16693 102.874 5.97454V34.8828ZM94.6034 2.25667V6.58153H73.1688V2.25667H94.6034Z" fill="#121212"/>
<path d="M137.182 34.2249H132.098V0.232971C134.906 0.232971 137.182 2.50898 137.182 5.31658V11.5763H142V15.977H137.182V34.2249ZM129.443 13.3593C129.443 20.188 124.701 24.9682 118.441 24.9682C112.181 24.9682 107.439 20.188 107.439 13.3593C107.439 6.53058 112.181 1.75047 118.441 1.75047C124.701 1.75047 129.443 6.53058 129.443 13.3593ZM124.359 13.3593C124.359 8.95857 121.931 6.07533 118.441 6.07533C114.951 6.07533 112.523 8.95857 112.523 13.3593C112.523 17.7601 114.951 20.6433 118.441 20.6433C121.931 20.6433 124.359 17.7601 124.359 13.3593Z" fill="#121212"/>
</g>
</g>
</svg>
