<svg width="142" height="35" viewBox="0 0 142 35" fill="none" xmlns="http://www.w3.org/2000/svg">
<g id="LOgo">
<g id="&#236;&#163;&#188;&#237;&#134;&#160;&#237;&#148;&#188;&#236;&#149;&#132;">
<path d="M32.4744 12.4794L30.1982 16.5008C25.8354 16.2731 21.0932 14.7177 17.7926 12.1L16.5786 11.0378C16.0096 11.6068 15.3646 12.1 14.6438 12.5932C11.3433 14.8315 7.0943 16.0076 3.11087 16.5008L0.493186 12.5553C6.52523 11.7965 11.3812 10.317 13.8092 6.90259C14.0748 6.52322 14.3024 6.1059 14.4921 5.65065H3.18674V1.32579H30.1982V5.65065H19.993C19.8033 6.33353 19.5757 6.97846 19.2722 7.58546C19.6136 8.00277 20.031 8.34421 20.4483 8.68565C23.4833 11.0378 27.6943 12.0241 32.4744 12.4794ZM19.2722 29.1718C19.2722 32.0213 16.9622 34.3313 14.1127 34.3313V23.1777H0V18.8529H16.6925H33.3849V23.1777H19.2722V29.1718Z" fill="white"/>
<path d="M65.1892 9.67202V13.9969H44.5133V17.8665H66.3273V22.2293H55.2875V27.5026H69.2106V31.8275H35.8257V27.5026H50.1281V22.2293H39.4297V1.62929H61.2437C63.6323 1.62929 65.5686 3.5656 65.5686 5.95415H44.4754V9.67202H65.1892Z" fill="white"/>
<path d="M72.4101 29.109V24.6324L76.4314 24.4806L76.1583 6.68798H81.2056L81.4771 24.2909L86.7504 24.0633L87.0293 6.68798H92.0765L91.7961 23.8736L96.2727 23.6839V27.9329L72.4101 29.109ZM102.874 34.9893H97.7902V0.997366C100.598 0.997366 102.874 3.27338 102.874 6.08099V34.9893ZM94.6034 2.36311V6.68798H73.1688V2.36311H94.6034Z" fill="white"/>
<path d="M137.182 34.3313H132.098V0.339417C134.906 0.339417 137.182 2.61543 137.182 5.42303V11.6827H142V16.0834H137.182V34.3313ZM129.443 13.4658C129.443 20.2945 124.701 25.0746 118.441 25.0746C112.181 25.0746 107.439 20.2945 107.439 13.4658C107.439 6.63703 112.181 1.85691 118.441 1.85691C124.701 1.85691 129.443 6.63703 129.443 13.4658ZM124.359 13.4658C124.359 9.06502 121.931 6.18178 118.441 6.18178C114.951 6.18178 112.523 9.06502 112.523 13.4658C112.523 17.8665 114.951 20.7497 118.441 20.7497C121.931 20.7497 124.359 17.8665 124.359 13.4658Z" fill="white"/>
</g>
</g>
</svg>
