<svg width="161" height="161" viewBox="0 0 161 161" fill="none" xmlns="http://www.w3.org/2000/svg">
<g id="Frame" clip-path="url(#clip0_182_1757)">
<g id="Layer 2">
<g id="increase">
<path id="background" d="M64.7451 24.6894C77.5207 21.1625 91.1227 22.1607 103.247 27.5149C115.37 32.8691 125.27 42.25 131.269 54.0682C137.268 65.8863 138.997 79.4149 136.162 92.3618C133.328 105.309 126.105 116.877 115.717 125.108C103.767 134.567 88.5501 138.891 73.4125 137.13C58.2749 135.369 44.4569 127.666 34.9983 115.717C25.5398 103.767 21.2155 88.5501 22.9768 73.4125C24.738 58.2749 32.4405 44.4569 44.3898 34.9984C50.4116 30.2267 57.3351 26.7202 64.7451 24.6894ZM62.713 17.3402C28.0788 26.9166 7.7638 62.7592 17.3402 97.3935C26.9166 132.028 62.7592 152.343 97.3934 142.766C132.028 133.19 152.343 97.3473 142.766 62.7131C133.19 28.0788 97.3473 7.76382 62.713 17.3402Z" fill="#D42C3F"/>
<path id="Vector" d="M99.0996 54.2678L107.062 83.0644C107.894 86.0727 106.654 88.9522 104.241 89.6194L98.3495 91.2484C95.934 91.9163 93.3937 90.0819 92.5619 87.0736L84.5996 58.2771C83.7678 55.2688 85.005 52.3899 87.4204 51.7221L93.2997 50.0964C95.725 49.4258 98.2678 51.2596 99.0996 54.2678Z" fill="#D42C3F"/>
<path id="Vector_2" d="M83.1493 70.0648L88.1868 88.2834C89.0186 91.2917 87.779 94.1713 85.366 94.8384L79.4867 96.4641C77.0761 97.1306 74.5333 95.2969 73.7015 92.2886L68.6641 74.07C67.8323 71.0617 69.0719 68.1822 71.4824 67.5156L77.3617 65.89C79.7747 65.2228 82.3175 67.0565 83.1493 70.0648Z" fill="#D42C3F"/>
<path id="Vector_3" d="M67.1283 83.9852L69.728 93.3873C70.5598 96.3955 69.3202 99.2751 66.9072 99.9423L61.0279 101.568C58.6173 102.234 56.0745 100.401 55.2427 97.3924L52.6431 87.9904C51.8113 84.9821 53.0509 82.1026 55.4614 81.4361L61.3407 79.8104C63.7537 79.1432 66.2965 80.9769 67.1283 83.9852Z" fill="#D42C3F"/>
</g>
</g>
</g>
<defs>
<clipPath id="clip0_182_1757">
<rect width="130.132" height="130.132" fill="white" transform="translate(0 34.6804) rotate(-15.4562)"/>
</clipPath>
</defs>
</svg>
